<?xml version="1.0" standalone="no"?>
<!DOCTYPE svg PUBLIC "-//W3C//DTD SVG 20010904//EN"
 "http://www.w3.org/TR/2001/REC-SVG-20010904/DTD/svg10.dtd">
<svg version="1.0" xmlns="http://www.w3.org/2000/svg"
 width="337.000000pt" height="66.000000pt" viewBox="0 0 337.000000 66.000000"
 preserveAspectRatio="xMidYMid meet">

<g transform="translate(0.000000,66.000000) scale(0.100000,-0.100000)"
fill="#000000" stroke="none">
<path d="M1828 608 c-68 -18 -116 -74 -233 -272 -60 -102 -113 -186 -116 -186
-4 0 -9 10 -13 23 -4 17 -12 23 -33 22 -28 0 -28 1 -31 68 l-3 67 36 0 c31 0
35 3 35 25 0 22 -4 25 -35 25 -34 0 -35 1 -35 40 l0 40 -40 0 c-39 0 -40 -1
-40 -36 0 -27 -5 -37 -20 -41 -13 -3 -20 -14 -20 -29 0 -17 6 -24 20 -24 18 0
20 -7 20 -83 0 -70 3 -87 19 -101 21 -19 71 -25 113 -13 26 7 27 6 22 -22 -5
-23 -1 -35 19 -55 l26 -26 709 0 c791 0 771 -2 840 69 49 51 262 418 262 452
0 18 -9 35 -26 48 -26 21 -33 21 -733 20 -429 -1 -721 -5 -743 -11z m-8 -185
l0 -68 61 68 c59 65 62 67 110 67 51 0 60 -8 34 -30 -9 -7 -34 -35 -57 -62
l-40 -49 46 -69 c49 -75 66 -86 66 -44 0 14 5 34 10 44 11 21 67 40 119 40 29
0 32 2 20 16 -13 16 -38 15 -95 -1 -17 -6 -24 -1 -32 25 -10 29 -9 32 16 42
15 7 58 12 95 13 63 0 71 -2 93 -28 22 -26 24 -37 24 -133 l0 -104 -39 0 c-22
0 -43 5 -46 10 -4 7 -12 7 -25 0 -32 -17 -85 -11 -115 12 l-27 21 6 -21 c7
-21 4 -22 -44 -22 -49 0 -52 2 -83 46 -61 87 -53 81 -76 60 -15 -14 -21 -31
-21 -63 l0 -43 -45 0 -45 0 0 170 0 170 45 0 45 0 0 -67z m888 20 c3 -29 7
-33 33 -33 27 0 29 -3 29 -35 0 -32 -2 -35 -30 -35 -30 0 -30 -1 -30 -55 0
-51 2 -55 24 -55 17 0 26 7 30 25 9 34 44 54 105 62 31 3 50 10 48 17 -5 16
-45 19 -79 5 -33 -14 -46 -6 -50 31 -2 20 3 27 32 37 45 15 98 16 140 2 41
-15 60 -58 60 -139 0 -57 1 -60 16 -45 22 22 56 15 71 -15 10 -20 9 -27 -4
-42 -20 -22 -62 -23 -70 -2 -5 15 -7 15 -15 0 -10 -18 -88 -23 -88 -6 0 7 -7
7 -21 -1 -12 -6 -41 -8 -68 -5 -57 7 -65 7 -122 0 -39 -5 -50 -2 -75 19 -25
22 -29 32 -32 96 -3 52 -8 71 -18 71 -11 0 -14 -21 -14 -95 l0 -95 -45 0 -45
0 0 83 c0 85 -8 107 -41 107 -33 0 -49 -39 -49 -117 l0 -73 -45 0 -46 0 3 133
3 132 43 3 c33 2 42 0 42 -13 0 -14 3 -14 30 0 46 24 87 19 121 -14 25 -26 29
-27 29 -10 0 11 7 22 15 25 8 4 15 18 15 33 0 37 7 42 55 39 37 -3 40 -5 43
-35z"/>
<path d="M2124 249 c-10 -17 11 -31 42 -27 18 2 30 10 32 21 3 13 -4 17 -32
17 -19 0 -38 -5 -42 -11z"/>
<path d="M2857 253 c-12 -12 -7 -31 9 -37 18 -7 64 18 64 34 0 11 -63 14 -73
3z"/>
<path d="M372 508 c-27 -27 -7 -78 29 -78 23 0 49 38 41 59 -11 31 -48 41 -70
19z"/>
<path d="M740 315 l0 -185 45 0 45 0 0 39 c0 21 6 44 15 51 12 10 19 3 42 -39
28 -50 29 -51 76 -51 26 0 47 2 47 4 0 2 -20 37 -45 77 -25 40 -45 76 -45 80
0 4 21 30 46 58 l46 51 -43 0 c-38 0 -49 -6 -91 -47 l-48 -47 0 97 0 97 -45 0
-45 0 0 -185z"/>
<path d="M50 445 l0 -35 50 0 50 0 0 -140 0 -140 45 0 45 0 0 140 0 140 50 0
50 0 0 35 0 35 -145 0 -145 0 0 -35z"/>
<path d="M360 265 l0 -135 40 0 40 0 0 135 0 135 -40 0 -40 0 0 -135z"/>
<path d="M544 386 c-52 -23 -74 -60 -74 -128 0 -55 3 -63 34 -94 34 -34 56
-40 126 -34 30 2 82 30 87 47 3 7 -8 18 -24 26 -24 13 -31 13 -48 1 -45 -33
-95 -1 -95 62 0 53 53 81 99 52 15 -9 24 -8 46 6 22 15 24 20 13 33 -32 39
-109 53 -164 29z"/>
<path d="M1083 386 c-95 -43 -97 -207 -2 -246 41 -18 110 -15 148 4 36 19 38
27 11 51 -16 14 -23 15 -34 6 -23 -20 -86 -9 -104 17 l-14 22 96 0 96 0 0 40
c0 61 -48 109 -115 116 -32 3 -62 -1 -82 -10z m105 -58 c7 -7 12 -20 12 -30 0
-15 -9 -18 -55 -18 -59 0 -63 4 -39 38 17 24 62 30 82 10z"/>
</g>
</svg>
